PathFileType	4	(X/Y/Z)	 Jog05.trc
DataRate	CameraRate	NumFrames	NumMarkers	Units	OrigDataRate	OrigDataStartFrame	OrigNumFrames
250	250	10	31	m	250	82	651
Frame#	Time	RASI			LASI			RAIC			LAIC			RTH2			RTB3			RMT1			RMT5			LTH1			LTH2			LTH3			LCAL			LMT1			LMT5			CLAV			STRN			RACR			LACR			RTH1			RTH3			LTB1			LTB2			C7			LPSI			T10			RPSI			LTB3			RTB1			RCAL			RTB2			C_30			
		X1	Y1	Z1	X2	Y2	Z2	X3	Y3	Z3	X4	Y4	Z4	X5	Y5	Z5	X6	Y6	Z6	X7	Y7	Z7	X8	Y8	Z8	X9	Y9	Z9	X10	Y10	Z10	X11	Y11	Z11	X12	Y12	Z12	X13	Y13	Z13	X14	Y14	Z14	X15	Y15	Z15	X16	Y16	Z16	X17	Y17	Z17	X18	Y18	Z18	X19	Y19	Z19	X20	Y20	Z20	X21	Y21	Z21	X22	Y22	Z22	X23	Y23	Z23	X24	Y24	Z24	X25	Y25	Z25	X26	Y26	Z26	X27	Y27	Z27	X28	Y28	Z28	X29	Y29	Z29	X30	Y30	Z30	X31	Y31	Z31	
82	0.3280	-3.044591	0.953609	0.488961	-3.053549	0.944794	0.258001	-3.105090	1.057544	0.531641	-3.088955	1.050583	0.232245	-3.002070	0.807342	0.554281	-3.028446	0.356036	0.455058	-3.066623	0.151937	0.451056	-3.089551	0.155143	0.542754	-3.137169	0.828423	0.209588	-3.125925	0.731493	0.244808	-3.206726	0.664952	0.233777	-3.636624	0.184877	0.359828	-3.477362	0.043826	0.395861	-3.491773	0.048422	0.306102	-3.002955	1.422517	0.388554	-2.972444	1.203221	0.403520	-3.104640	1.476719	0.539263	-3.000479	1.461807	0.210979	-3.097877	0.844749	0.567700	-2.987943	0.707057	0.555324	-3.347017	0.377770	0.357129	-3.383174	0.313724	0.308603	-3.112973	1.504892	0.357543	-3.214492	1.044407	0.355783	-3.193496	1.223540	0.354375	-3.214691	1.038849	0.428251	-3.438163	0.275331	0.364433	-2.927499	0.448151	0.452248	-3.243418	0.269626	0.439784	-2.970001	0.399679	0.506052	-2.864471	0.572101	0.408341	
83	0.3320	-3.027808	0.957741	0.489148	-3.035899	0.947283	0.258868	-3.083063	1.061775	0.533860	-3.069839	1.053662	0.232772	-2.984649	0.811266	0.554081	-3.002504	0.352902	0.453798	-3.031421	0.146915	0.449947	-3.054782	0.149338	0.541435	-3.121481	0.830971	0.209345	-3.112248	0.733750	0.244179	-3.194556	0.668837	0.232797	-3.626909	0.194385	0.357810	-3.475004	0.045779	0.395103	-3.488940	0.049821	0.305155	-2.987532	1.426469	0.389901	-2.955549	1.208125	0.405492	-3.090264	1.480063	0.538891	-2.983516	1.466063	0.212810	-3.080280	0.848831	0.567949	-2.970659	0.710839	0.555018	-3.338725	0.382929	0.354749	-3.374553	0.319896	0.305314	-3.097425	1.507710	0.357787	-3.196501	1.048144	0.355231	-3.176389	1.226227	0.353036	-3.196981	1.042870	0.427707	-3.429943	0.280345	0.362495	-2.905706	0.449080	0.451002	-3.213562	0.256475	0.438546	-2.945723	0.398890	0.505747	-2.847885	0.575956	0.407506	
84	0.3360	-3.011023	0.961750	0.489128	-3.018099	0.949433	0.259623	-3.066276	1.066205	0.533643	-3.050218	1.056612	0.233141	-2.967268	0.814917	0.553801	-2.976378	0.349036	0.452573	-2.996115	0.142323	0.448701	-3.018728	0.143678	0.539692	-3.105681	0.833280	0.208971	-3.098812	0.735703	0.243856	-3.181959	0.672545	0.231996	-3.616981	0.204242	0.355497	-3.472462	0.048339	0.394311	-3.485698	0.051451	0.304111	-2.972193	1.430162	0.391042	-2.938670	1.212724	0.407268	-3.075594	1.483199	0.538737	-2.966658	1.470123	0.214617	-3.062527	0.852781	0.568061	-2.953501	0.714376	0.554668	-3.330074	0.388088	0.352650	-3.367795	0.325789	0.303651	-3.081744	1.510306	0.358108	-3.178479	1.051708	0.354609	-3.159384	1.228800	0.351725	-3.179302	1.046812	0.427101	-3.420316	0.285154	0.359541	-2.883916	0.449731	0.449854	-3.183288	0.243508	0.437502	-2.921741	0.397573	0.504041	-2.831691	0.579305	0.406328	
85	0.3400	-2.994267	0.965535	0.489253	-3.000285	0.951499	0.260248	-3.049443	1.070473	0.533359	-3.030889	1.059436	0.233756	-2.949943	0.818296	0.553510	-2.950798	0.345339	0.451383	-2.960778	0.138280	0.447440	-2.983572	0.138577	0.538386	-3.090093	0.835613	0.208661	-3.085044	0.737800	0.243483	-3.169343	0.676145	0.231234	-3.606581	0.214118	0.353002	-3.469360	0.051468	0.393238	-3.482008	0.053371	0.303095	-2.956655	1.433657	0.392220	-2.922014	1.217113	0.409105	-3.061143	1.486127	0.538571	-2.949832	1.474048	0.216476	-3.044926	0.856630	0.568346	-2.936579	0.717696	0.554204	-3.320742	0.393077	0.350457	-3.359841	0.332210	0.301161	-3.066137	1.512721	0.358360	-3.160378	1.055153	0.354018	-3.142281	1.231201	0.350485	-3.161578	1.050578	0.426483	-3.410734	0.289980	0.356961	-2.862471	0.450321	0.448479	-3.153025	0.230899	0.436587	-2.898206	0.396390	0.503395	-2.815834	0.582343	0.405188	
86	0.3440	-2.977502	0.969110	0.489329	-2.981463	0.953943	0.260682	-3.031965	1.074348	0.533627	-3.011692	1.062187	0.234141	-2.932790	0.821385	0.553162	-2.925271	0.342208	0.450480	-2.925278	0.134678	0.446169	-2.948943	0.134088	0.537703	-3.074416	0.837799	0.208209	-3.071331	0.739896	0.243134	-3.156655	0.679671	0.230477	-3.595871	0.224384	0.350438	-3.466015	0.055581	0.392017	-3.477989	0.055343	0.301900	-2.941225	1.436873	0.393318	-2.905360	1.221329	0.410818	-3.046286	1.488928	0.538528	-2.933103	1.477760	0.218277	-3.027257	0.860331	0.568449	-2.919946	0.720718	0.553657	-3.311372	0.398220	0.348652	-3.351272	0.337835	0.298702	-3.050448	1.515016	0.358705	-3.142295	1.058440	0.353453	-3.125205	1.233458	0.349296	-3.143917	1.054203	0.425863	-3.401511	0.295143	0.355207	-2.841033	0.450605	0.447025	-3.121782	0.218138	0.435212	-2.874909	0.395270	0.501865	-2.800054	0.584808	0.404183	
87	0.3480	-2.960864	0.972450	0.489267	-2.964042	0.955733	0.261397	-3.015437	1.078353	0.533353	-2.991175	1.064583	0.234877	-2.915729	0.824152	0.552718	-2.899170	0.338626	0.449378	-2.889923	0.131651	0.445083	-2.912804	0.129709	0.536063	-3.058665	0.839809	0.207725	-3.057564	0.742000	0.242911	-3.143908	0.683239	0.229732	-3.584666	0.234900	0.348010	-3.462525	0.060244	0.390369	-3.474312	0.057724	0.300423	-2.925727	1.440055	0.394504	-2.888835	1.225335	0.412400	-3.031395	1.491521	0.538518	-2.916394	1.481297	0.220040	-3.009652	0.863819	0.568530	-2.903501	0.723374	0.552840	-3.301401	0.403355	0.346815	-3.341901	0.343736	0.296595	-3.034828	1.517176	0.358995	-3.124221	1.061607	0.352866	-3.108217	1.235560	0.348182	-3.126313	1.057640	0.425186	-3.391737	0.300573	0.352902	-2.820101	0.450528	0.445398	-3.090082	0.205612	0.433796	-2.851538	0.394007	0.500980	-2.784442	0.586734	0.403017	
88	0.3520	-2.944224	0.975516	0.489487	-2.946638	0.957423	0.262044	-2.998898	1.082126	0.533366	-2.972343	1.067018	0.235509	-2.898793	0.826597	0.552220	-2.873818	0.335168	0.448227	-2.854290	0.129032	0.444105	-2.877268	0.125813	0.535027	-3.043076	0.841911	0.207300	-3.043822	0.744189	0.242521	-3.131365	0.686797	0.228840	-3.573305	0.245620	0.345772	-3.459013	0.065575	0.388473	-3.470913	0.060402	0.299406	-2.910231	1.442895	0.395696	-2.872352	1.229081	0.414042	-3.016371	1.493945	0.538686	-2.899746	1.484675	0.221741	-2.992308	0.867154	0.568634	-2.887426	0.725720	0.551907	-3.290999	0.408416	0.345257	-3.332459	0.349385	0.294687	-3.018353	1.519097	0.359263	-3.106249	1.064646	0.352303	-3.091158	1.237505	0.347142	-3.108784	1.060903	0.424502	-3.382140	0.306173	0.351265	-2.800514	0.450650	0.445180	-3.057875	0.193311	0.432289	-2.828424	0.392646	0.499674	-2.768973	0.588214	0.401833	
89	0.3560	-2.927632	0.978261	0.489473	-2.929518	0.959031	0.262753	-2.982468	1.085527	0.533313	-2.953697	1.069287	0.236055	-2.882019	0.828802	0.551747	-2.848006	0.331601	0.446776	-2.818969	0.127082	0.443127	-2.842136	0.122402	0.534000	-3.027441	0.843904	0.206838	-3.029736	0.746293	0.242129	-3.118283	0.690213	0.228305	-3.562000	0.256247	0.343799	-3.455129	0.071168	0.386778	-3.468436	0.063989	0.298750	-2.894838	1.445540	0.396829	-2.855974	1.232645	0.415620	-3.001218	1.496189	0.538878	-2.883046	1.487820	0.223504	-2.974807	0.870190	0.568499	-2.871494	0.727677	0.550557	-3.280337	0.413395	0.343909	-3.322230	0.354930	0.293206	-3.002648	1.520987	0.359581	-3.088319	1.067519	0.351710	-3.074124	1.239280	0.346202	-3.091327	1.063977	0.423807	-3.372135	0.311778	0.349317	-2.780128	0.450324	0.443658	-3.025280	0.181313	0.430632	-2.805597	0.391327	0.498380	-2.753537	0.589284	0.400737	
90	0.3600	-2.911165	0.980801	0.489528	-2.912411	0.960482	0.263268	-2.965860	1.088592	0.533425	-2.935372	1.071400	0.236507	-2.865240	0.830637	0.551192	-2.822504	0.328118	0.446107	-2.783597	0.125586	0.442293	-2.807059	0.119631	0.533165	-3.011576	0.845853	0.206464	-3.015455	0.748300	0.241578	-3.105250	0.693634	0.227452	-3.551041	0.266602	0.342131	-3.451833	0.077012	0.385335	-3.466690	0.069778	0.297833	-2.879282	1.447950	0.397924	-2.839491	1.236058	0.417076	-2.986089	1.498212	0.539104	-2.866425	1.490762	0.225083	-2.957736	0.872988	0.568511	-2.856196	0.729416	0.548986	-3.269524	0.418098	0.342848	-3.311390	0.359890	0.292097	-2.986764	1.522665	0.359956	-3.070619	1.070319	0.351128	-3.057159	1.240888	0.345323	-3.073938	1.066856	0.423123	-3.362249	0.317319	0.347655	-2.760170	0.449933	0.442383	-2.992274	0.169680	0.428926	-2.783142	0.389819	0.497592	-2.738355	0.589886	0.399614	
91	0.3640	-2.894647	0.982867	0.489619	-2.895620	0.961913	0.263701	-2.949619	1.091308	0.533641	-2.917325	1.073404	0.236813	-2.848967	0.832138	0.550610	-2.797004	0.324845	0.444360	-2.748501	0.124631	0.441573	-2.772045	0.117453	0.532345	-2.995971	0.847955	0.205988	-3.001059	0.750338	0.240708	-3.091793	0.696994	0.226742	-3.540747	0.276787	0.340703	-3.448029	0.084190	0.384196	-3.464114	0.077099	0.296596	-2.863622	1.450105	0.399008	-2.822992	1.239130	0.418490	-2.970805	1.499960	0.539473	-2.849785	1.493534	0.226707	-2.940632	0.875391	0.568354	-2.840980	0.730760	0.547190	-3.258986	0.422577	0.342196	-3.300652	0.364930	0.290949	-2.971032	1.524248	0.360342	-3.053076	1.072926	0.350486	-3.040175	1.242354	0.344522	-3.056644	1.069578	0.422449	-3.352672	0.322793	0.346133	-2.740729	0.449634	0.441249	-2.959042	0.158528	0.427158	-2.760812	0.388454	0.496037	-2.723508	0.590142	0.398604	
